<mxfile host="app.diagrams.net" modified="2023-02-18T11:57:32.865Z" agent="5.0 (Windows NT 10.0; Win64; x64) AppleWebKit/537.36 (KHTML, like Gecko) Chrome/110.0.0.0 Safari/537.36" etag="qi2pgXWcgjmpd_HHSA4s" version="16.6.7" type="github">
  <diagram id="v5hP3LnzkyjKXNR7ILOM" name="Page-1">
    <mxGraphModel dx="3303" dy="2689" grid="1" gridSize="1" guides="1" tooltips="1" connect="1" arrows="1" fold="1" page="1" pageScale="1" pageWidth="827" pageHeight="1169" math="0" shadow="0">
      <root>
        <mxCell id="0" />
        <mxCell id="1" parent="0" />
        <mxCell id="fFUsiUg8K44ykZOcUOI2-35" style="edgeStyle=orthogonalEdgeStyle;rounded=0;orthogonalLoop=1;jettySize=auto;html=1;" edge="1" parent="1" source="fFUsiUg8K44ykZOcUOI2-7" target="fFUsiUg8K44ykZOcUOI2-24">
          <mxGeometry relative="1" as="geometry" />
        </mxCell>
        <mxCell id="fFUsiUg8K44ykZOcUOI2-36" style="edgeStyle=orthogonalEdgeStyle;rounded=0;orthogonalLoop=1;jettySize=auto;html=1;entryX=0.5;entryY=0;entryDx=0;entryDy=0;" edge="1" parent="1" source="fFUsiUg8K44ykZOcUOI2-7" target="fFUsiUg8K44ykZOcUOI2-26">
          <mxGeometry relative="1" as="geometry" />
        </mxCell>
        <mxCell id="fFUsiUg8K44ykZOcUOI2-37" style="edgeStyle=orthogonalEdgeStyle;rounded=0;orthogonalLoop=1;jettySize=auto;html=1;" edge="1" parent="1" source="fFUsiUg8K44ykZOcUOI2-7" target="fFUsiUg8K44ykZOcUOI2-28">
          <mxGeometry relative="1" as="geometry" />
        </mxCell>
        <mxCell id="fFUsiUg8K44ykZOcUOI2-38" style="edgeStyle=orthogonalEdgeStyle;rounded=0;orthogonalLoop=1;jettySize=auto;html=1;entryX=0.5;entryY=0;entryDx=0;entryDy=0;" edge="1" parent="1" source="fFUsiUg8K44ykZOcUOI2-7" target="fFUsiUg8K44ykZOcUOI2-30">
          <mxGeometry relative="1" as="geometry" />
        </mxCell>
        <mxCell id="fFUsiUg8K44ykZOcUOI2-39" style="edgeStyle=orthogonalEdgeStyle;rounded=0;orthogonalLoop=1;jettySize=auto;html=1;entryX=0.5;entryY=0;entryDx=0;entryDy=0;" edge="1" parent="1" source="fFUsiUg8K44ykZOcUOI2-7" target="fFUsiUg8K44ykZOcUOI2-32">
          <mxGeometry relative="1" as="geometry" />
        </mxCell>
        <mxCell id="fFUsiUg8K44ykZOcUOI2-7" value="ENERO" style="rounded=0;whiteSpace=wrap;html=1;fillColor=#8daadc;strokeColor=#56517e;" vertex="1" parent="1">
          <mxGeometry x="400" y="80" width="190" height="80" as="geometry" />
        </mxCell>
        <mxCell id="fFUsiUg8K44ykZOcUOI2-21" style="edgeStyle=orthogonalEdgeStyle;rounded=0;orthogonalLoop=1;jettySize=auto;html=1;" edge="1" parent="1" source="fFUsiUg8K44ykZOcUOI2-20" target="fFUsiUg8K44ykZOcUOI2-7">
          <mxGeometry relative="1" as="geometry" />
        </mxCell>
        <mxCell id="fFUsiUg8K44ykZOcUOI2-20" value="MESES" style="rounded=0;whiteSpace=wrap;html=1;" vertex="1" parent="1">
          <mxGeometry x="240" y="80" width="120" height="80" as="geometry" />
        </mxCell>
        <mxCell id="fFUsiUg8K44ykZOcUOI2-25" value="" style="edgeStyle=orthogonalEdgeStyle;rounded=0;orthogonalLoop=1;jettySize=auto;html=1;" edge="1" parent="1" source="fFUsiUg8K44ykZOcUOI2-22" target="fFUsiUg8K44ykZOcUOI2-24">
          <mxGeometry relative="1" as="geometry" />
        </mxCell>
        <mxCell id="fFUsiUg8K44ykZOcUOI2-22" value="SEMANAS&lt;br&gt;" style="rounded=0;whiteSpace=wrap;html=1;" vertex="1" parent="1">
          <mxGeometry x="240" y="200" width="120" height="80" as="geometry" />
        </mxCell>
        <mxCell id="fFUsiUg8K44ykZOcUOI2-27" value="" style="edgeStyle=orthogonalEdgeStyle;rounded=0;orthogonalLoop=1;jettySize=auto;html=1;" edge="1" parent="1" source="fFUsiUg8K44ykZOcUOI2-24" target="fFUsiUg8K44ykZOcUOI2-26">
          <mxGeometry relative="1" as="geometry" />
        </mxCell>
        <mxCell id="fFUsiUg8K44ykZOcUOI2-24" value="1" style="rounded=0;whiteSpace=wrap;html=1;" vertex="1" parent="1">
          <mxGeometry x="400" y="200" width="30" height="80" as="geometry" />
        </mxCell>
        <mxCell id="fFUsiUg8K44ykZOcUOI2-29" value="" style="edgeStyle=orthogonalEdgeStyle;rounded=0;orthogonalLoop=1;jettySize=auto;html=1;" edge="1" parent="1" source="fFUsiUg8K44ykZOcUOI2-26" target="fFUsiUg8K44ykZOcUOI2-28">
          <mxGeometry relative="1" as="geometry" />
        </mxCell>
        <mxCell id="fFUsiUg8K44ykZOcUOI2-26" value="2" style="rounded=0;whiteSpace=wrap;html=1;" vertex="1" parent="1">
          <mxGeometry x="440" y="200" width="30" height="80" as="geometry" />
        </mxCell>
        <mxCell id="fFUsiUg8K44ykZOcUOI2-31" value="" style="edgeStyle=orthogonalEdgeStyle;rounded=0;orthogonalLoop=1;jettySize=auto;html=1;" edge="1" parent="1" source="fFUsiUg8K44ykZOcUOI2-28" target="fFUsiUg8K44ykZOcUOI2-30">
          <mxGeometry relative="1" as="geometry" />
        </mxCell>
        <mxCell id="fFUsiUg8K44ykZOcUOI2-28" value="3" style="rounded=0;whiteSpace=wrap;html=1;" vertex="1" parent="1">
          <mxGeometry x="480" y="200" width="30" height="80" as="geometry" />
        </mxCell>
        <mxCell id="fFUsiUg8K44ykZOcUOI2-33" value="" style="edgeStyle=orthogonalEdgeStyle;rounded=0;orthogonalLoop=1;jettySize=auto;html=1;" edge="1" parent="1" source="fFUsiUg8K44ykZOcUOI2-30" target="fFUsiUg8K44ykZOcUOI2-32">
          <mxGeometry relative="1" as="geometry" />
        </mxCell>
        <mxCell id="fFUsiUg8K44ykZOcUOI2-30" value="4" style="rounded=0;whiteSpace=wrap;html=1;" vertex="1" parent="1">
          <mxGeometry x="520" y="200" width="30" height="80" as="geometry" />
        </mxCell>
        <mxCell id="fFUsiUg8K44ykZOcUOI2-32" value="5" style="rounded=0;whiteSpace=wrap;html=1;" vertex="1" parent="1">
          <mxGeometry x="560" y="200" width="30" height="80" as="geometry" />
        </mxCell>
        <mxCell id="fFUsiUg8K44ykZOcUOI2-51" value="" style="edgeStyle=orthogonalEdgeStyle;rounded=0;orthogonalLoop=1;jettySize=auto;html=1;" edge="1" parent="1" source="fFUsiUg8K44ykZOcUOI2-52" target="fFUsiUg8K44ykZOcUOI2-54">
          <mxGeometry relative="1" as="geometry" />
        </mxCell>
        <mxCell id="fFUsiUg8K44ykZOcUOI2-52" value="TESTEO" style="rounded=0;whiteSpace=wrap;html=1;" vertex="1" parent="1">
          <mxGeometry x="239" y="320" width="120" height="80" as="geometry" />
        </mxCell>
        <mxCell id="fFUsiUg8K44ykZOcUOI2-53" value="" style="edgeStyle=orthogonalEdgeStyle;rounded=0;orthogonalLoop=1;jettySize=auto;html=1;" edge="1" parent="1" source="fFUsiUg8K44ykZOcUOI2-54" target="fFUsiUg8K44ykZOcUOI2-56">
          <mxGeometry relative="1" as="geometry" />
        </mxCell>
        <mxCell id="fFUsiUg8K44ykZOcUOI2-54" value="1" style="rounded=0;whiteSpace=wrap;html=1;" vertex="1" parent="1">
          <mxGeometry x="399" y="320" width="30" height="80" as="geometry" />
        </mxCell>
        <mxCell id="fFUsiUg8K44ykZOcUOI2-55" value="" style="edgeStyle=orthogonalEdgeStyle;rounded=0;orthogonalLoop=1;jettySize=auto;html=1;" edge="1" parent="1" source="fFUsiUg8K44ykZOcUOI2-56" target="fFUsiUg8K44ykZOcUOI2-58">
          <mxGeometry relative="1" as="geometry" />
        </mxCell>
        <mxCell id="fFUsiUg8K44ykZOcUOI2-56" value="2" style="rounded=0;whiteSpace=wrap;html=1;" vertex="1" parent="1">
          <mxGeometry x="439" y="320" width="30" height="80" as="geometry" />
        </mxCell>
        <mxCell id="fFUsiUg8K44ykZOcUOI2-57" value="" style="edgeStyle=orthogonalEdgeStyle;rounded=0;orthogonalLoop=1;jettySize=auto;html=1;" edge="1" parent="1" source="fFUsiUg8K44ykZOcUOI2-58" target="fFUsiUg8K44ykZOcUOI2-60">
          <mxGeometry relative="1" as="geometry" />
        </mxCell>
        <mxCell id="fFUsiUg8K44ykZOcUOI2-58" value="3" style="rounded=0;whiteSpace=wrap;html=1;" vertex="1" parent="1">
          <mxGeometry x="479" y="320" width="30" height="80" as="geometry" />
        </mxCell>
        <mxCell id="fFUsiUg8K44ykZOcUOI2-59" value="" style="edgeStyle=orthogonalEdgeStyle;rounded=0;orthogonalLoop=1;jettySize=auto;html=1;" edge="1" parent="1" source="fFUsiUg8K44ykZOcUOI2-60" target="fFUsiUg8K44ykZOcUOI2-61">
          <mxGeometry relative="1" as="geometry" />
        </mxCell>
        <mxCell id="fFUsiUg8K44ykZOcUOI2-60" value="4" style="rounded=0;whiteSpace=wrap;html=1;" vertex="1" parent="1">
          <mxGeometry x="519" y="320" width="30" height="80" as="geometry" />
        </mxCell>
        <mxCell id="fFUsiUg8K44ykZOcUOI2-61" value="5" style="rounded=0;whiteSpace=wrap;html=1;" vertex="1" parent="1">
          <mxGeometry x="559" y="320" width="30" height="80" as="geometry" />
        </mxCell>
        <mxCell id="fFUsiUg8K44ykZOcUOI2-68" style="edgeStyle=orthogonalEdgeStyle;rounded=0;orthogonalLoop=1;jettySize=auto;html=1;" edge="1" parent="1" source="fFUsiUg8K44ykZOcUOI2-73" target="fFUsiUg8K44ykZOcUOI2-75">
          <mxGeometry relative="1" as="geometry" />
        </mxCell>
        <mxCell id="fFUsiUg8K44ykZOcUOI2-69" style="edgeStyle=orthogonalEdgeStyle;rounded=0;orthogonalLoop=1;jettySize=auto;html=1;entryX=0.5;entryY=0;entryDx=0;entryDy=0;" edge="1" parent="1" source="fFUsiUg8K44ykZOcUOI2-73" target="fFUsiUg8K44ykZOcUOI2-77">
          <mxGeometry relative="1" as="geometry" />
        </mxCell>
        <mxCell id="fFUsiUg8K44ykZOcUOI2-70" style="edgeStyle=orthogonalEdgeStyle;rounded=0;orthogonalLoop=1;jettySize=auto;html=1;" edge="1" parent="1" source="fFUsiUg8K44ykZOcUOI2-73" target="fFUsiUg8K44ykZOcUOI2-79">
          <mxGeometry relative="1" as="geometry" />
        </mxCell>
        <mxCell id="fFUsiUg8K44ykZOcUOI2-71" style="edgeStyle=orthogonalEdgeStyle;rounded=0;orthogonalLoop=1;jettySize=auto;html=1;entryX=0.5;entryY=0;entryDx=0;entryDy=0;" edge="1" parent="1" source="fFUsiUg8K44ykZOcUOI2-73" target="fFUsiUg8K44ykZOcUOI2-81">
          <mxGeometry relative="1" as="geometry" />
        </mxCell>
        <mxCell id="fFUsiUg8K44ykZOcUOI2-73" value="FEBRERO&lt;br&gt;" style="rounded=0;whiteSpace=wrap;html=1;fillColor=#dfb3c0;" vertex="1" parent="1">
          <mxGeometry x="621" y="80" width="159" height="80" as="geometry" />
        </mxCell>
        <mxCell id="fFUsiUg8K44ykZOcUOI2-74" value="" style="edgeStyle=orthogonalEdgeStyle;rounded=0;orthogonalLoop=1;jettySize=auto;html=1;" edge="1" parent="1" source="fFUsiUg8K44ykZOcUOI2-75" target="fFUsiUg8K44ykZOcUOI2-77">
          <mxGeometry relative="1" as="geometry" />
        </mxCell>
        <mxCell id="fFUsiUg8K44ykZOcUOI2-75" value="1" style="rounded=0;whiteSpace=wrap;html=1;" vertex="1" parent="1">
          <mxGeometry x="621" y="200" width="30" height="80" as="geometry" />
        </mxCell>
        <mxCell id="fFUsiUg8K44ykZOcUOI2-76" value="" style="edgeStyle=orthogonalEdgeStyle;rounded=0;orthogonalLoop=1;jettySize=auto;html=1;" edge="1" parent="1" source="fFUsiUg8K44ykZOcUOI2-77" target="fFUsiUg8K44ykZOcUOI2-79">
          <mxGeometry relative="1" as="geometry" />
        </mxCell>
        <mxCell id="fFUsiUg8K44ykZOcUOI2-77" value="2" style="rounded=0;whiteSpace=wrap;html=1;" vertex="1" parent="1">
          <mxGeometry x="661" y="200" width="30" height="80" as="geometry" />
        </mxCell>
        <mxCell id="fFUsiUg8K44ykZOcUOI2-78" value="" style="edgeStyle=orthogonalEdgeStyle;rounded=0;orthogonalLoop=1;jettySize=auto;html=1;" edge="1" parent="1" source="fFUsiUg8K44ykZOcUOI2-79" target="fFUsiUg8K44ykZOcUOI2-81">
          <mxGeometry relative="1" as="geometry" />
        </mxCell>
        <mxCell id="fFUsiUg8K44ykZOcUOI2-79" value="3" style="rounded=0;whiteSpace=wrap;html=1;" vertex="1" parent="1">
          <mxGeometry x="701" y="200" width="30" height="80" as="geometry" />
        </mxCell>
        <mxCell id="fFUsiUg8K44ykZOcUOI2-81" value="4" style="rounded=0;whiteSpace=wrap;html=1;" vertex="1" parent="1">
          <mxGeometry x="741" y="200" width="30" height="80" as="geometry" />
        </mxCell>
        <mxCell id="fFUsiUg8K44ykZOcUOI2-83" value="" style="edgeStyle=orthogonalEdgeStyle;rounded=0;orthogonalLoop=1;jettySize=auto;html=1;" edge="1" parent="1" source="fFUsiUg8K44ykZOcUOI2-84" target="fFUsiUg8K44ykZOcUOI2-86">
          <mxGeometry relative="1" as="geometry" />
        </mxCell>
        <mxCell id="fFUsiUg8K44ykZOcUOI2-84" value="1" style="rounded=0;whiteSpace=wrap;html=1;" vertex="1" parent="1">
          <mxGeometry x="620" y="320" width="30" height="80" as="geometry" />
        </mxCell>
        <mxCell id="fFUsiUg8K44ykZOcUOI2-85" value="" style="edgeStyle=orthogonalEdgeStyle;rounded=0;orthogonalLoop=1;jettySize=auto;html=1;" edge="1" parent="1" source="fFUsiUg8K44ykZOcUOI2-86" target="fFUsiUg8K44ykZOcUOI2-88">
          <mxGeometry relative="1" as="geometry" />
        </mxCell>
        <mxCell id="fFUsiUg8K44ykZOcUOI2-86" value="2" style="rounded=0;whiteSpace=wrap;html=1;" vertex="1" parent="1">
          <mxGeometry x="660" y="320" width="30" height="80" as="geometry" />
        </mxCell>
        <mxCell id="fFUsiUg8K44ykZOcUOI2-87" value="" style="edgeStyle=orthogonalEdgeStyle;rounded=0;orthogonalLoop=1;jettySize=auto;html=1;" edge="1" parent="1" source="fFUsiUg8K44ykZOcUOI2-88" target="fFUsiUg8K44ykZOcUOI2-90">
          <mxGeometry relative="1" as="geometry" />
        </mxCell>
        <mxCell id="fFUsiUg8K44ykZOcUOI2-88" value="3" style="rounded=0;whiteSpace=wrap;html=1;" vertex="1" parent="1">
          <mxGeometry x="700" y="320" width="30" height="80" as="geometry" />
        </mxCell>
        <mxCell id="fFUsiUg8K44ykZOcUOI2-90" value="4" style="rounded=0;whiteSpace=wrap;html=1;" vertex="1" parent="1">
          <mxGeometry x="740" y="320" width="30" height="80" as="geometry" />
        </mxCell>
        <mxCell id="fFUsiUg8K44ykZOcUOI2-113" style="edgeStyle=orthogonalEdgeStyle;rounded=0;orthogonalLoop=1;jettySize=auto;html=1;" edge="1" parent="1" source="fFUsiUg8K44ykZOcUOI2-118" target="fFUsiUg8K44ykZOcUOI2-120">
          <mxGeometry relative="1" as="geometry" />
        </mxCell>
        <mxCell id="fFUsiUg8K44ykZOcUOI2-114" style="edgeStyle=orthogonalEdgeStyle;rounded=0;orthogonalLoop=1;jettySize=auto;html=1;entryX=0.5;entryY=0;entryDx=0;entryDy=0;" edge="1" parent="1" source="fFUsiUg8K44ykZOcUOI2-118" target="fFUsiUg8K44ykZOcUOI2-122">
          <mxGeometry relative="1" as="geometry" />
        </mxCell>
        <mxCell id="fFUsiUg8K44ykZOcUOI2-115" style="edgeStyle=orthogonalEdgeStyle;rounded=0;orthogonalLoop=1;jettySize=auto;html=1;" edge="1" parent="1" source="fFUsiUg8K44ykZOcUOI2-118" target="fFUsiUg8K44ykZOcUOI2-124">
          <mxGeometry relative="1" as="geometry" />
        </mxCell>
        <mxCell id="fFUsiUg8K44ykZOcUOI2-116" style="edgeStyle=orthogonalEdgeStyle;rounded=0;orthogonalLoop=1;jettySize=auto;html=1;entryX=0.5;entryY=0;entryDx=0;entryDy=0;" edge="1" parent="1" source="fFUsiUg8K44ykZOcUOI2-118" target="fFUsiUg8K44ykZOcUOI2-126">
          <mxGeometry relative="1" as="geometry" />
        </mxCell>
        <mxCell id="fFUsiUg8K44ykZOcUOI2-117" style="edgeStyle=orthogonalEdgeStyle;rounded=0;orthogonalLoop=1;jettySize=auto;html=1;entryX=0.5;entryY=0;entryDx=0;entryDy=0;" edge="1" parent="1" source="fFUsiUg8K44ykZOcUOI2-118" target="fFUsiUg8K44ykZOcUOI2-127">
          <mxGeometry relative="1" as="geometry" />
        </mxCell>
        <mxCell id="fFUsiUg8K44ykZOcUOI2-118" value="MARZO" style="rounded=0;whiteSpace=wrap;html=1;fillColor=#fab587;" vertex="1" parent="1">
          <mxGeometry x="808" y="80" width="190" height="80" as="geometry" />
        </mxCell>
        <mxCell id="fFUsiUg8K44ykZOcUOI2-119" value="" style="edgeStyle=orthogonalEdgeStyle;rounded=0;orthogonalLoop=1;jettySize=auto;html=1;" edge="1" parent="1" source="fFUsiUg8K44ykZOcUOI2-120" target="fFUsiUg8K44ykZOcUOI2-122">
          <mxGeometry relative="1" as="geometry" />
        </mxCell>
        <mxCell id="fFUsiUg8K44ykZOcUOI2-120" value="1" style="rounded=0;whiteSpace=wrap;html=1;" vertex="1" parent="1">
          <mxGeometry x="808" y="200" width="30" height="80" as="geometry" />
        </mxCell>
        <mxCell id="fFUsiUg8K44ykZOcUOI2-121" value="" style="edgeStyle=orthogonalEdgeStyle;rounded=0;orthogonalLoop=1;jettySize=auto;html=1;" edge="1" parent="1" source="fFUsiUg8K44ykZOcUOI2-122" target="fFUsiUg8K44ykZOcUOI2-124">
          <mxGeometry relative="1" as="geometry" />
        </mxCell>
        <mxCell id="fFUsiUg8K44ykZOcUOI2-122" value="2" style="rounded=0;whiteSpace=wrap;html=1;" vertex="1" parent="1">
          <mxGeometry x="848" y="200" width="30" height="80" as="geometry" />
        </mxCell>
        <mxCell id="fFUsiUg8K44ykZOcUOI2-123" value="" style="edgeStyle=orthogonalEdgeStyle;rounded=0;orthogonalLoop=1;jettySize=auto;html=1;" edge="1" parent="1" source="fFUsiUg8K44ykZOcUOI2-124" target="fFUsiUg8K44ykZOcUOI2-126">
          <mxGeometry relative="1" as="geometry" />
        </mxCell>
        <mxCell id="fFUsiUg8K44ykZOcUOI2-124" value="3" style="rounded=0;whiteSpace=wrap;html=1;" vertex="1" parent="1">
          <mxGeometry x="888" y="200" width="30" height="80" as="geometry" />
        </mxCell>
        <mxCell id="fFUsiUg8K44ykZOcUOI2-125" value="" style="edgeStyle=orthogonalEdgeStyle;rounded=0;orthogonalLoop=1;jettySize=auto;html=1;" edge="1" parent="1" source="fFUsiUg8K44ykZOcUOI2-126" target="fFUsiUg8K44ykZOcUOI2-127">
          <mxGeometry relative="1" as="geometry" />
        </mxCell>
        <mxCell id="fFUsiUg8K44ykZOcUOI2-126" value="4" style="rounded=0;whiteSpace=wrap;html=1;" vertex="1" parent="1">
          <mxGeometry x="928" y="200" width="30" height="80" as="geometry" />
        </mxCell>
        <mxCell id="fFUsiUg8K44ykZOcUOI2-127" value="5" style="rounded=0;whiteSpace=wrap;html=1;" vertex="1" parent="1">
          <mxGeometry x="968" y="200" width="30" height="80" as="geometry" />
        </mxCell>
        <mxCell id="fFUsiUg8K44ykZOcUOI2-128" value="" style="edgeStyle=orthogonalEdgeStyle;rounded=0;orthogonalLoop=1;jettySize=auto;html=1;" edge="1" parent="1" source="fFUsiUg8K44ykZOcUOI2-129" target="fFUsiUg8K44ykZOcUOI2-131">
          <mxGeometry relative="1" as="geometry" />
        </mxCell>
        <mxCell id="fFUsiUg8K44ykZOcUOI2-129" value="1" style="rounded=0;whiteSpace=wrap;html=1;" vertex="1" parent="1">
          <mxGeometry x="807" y="320" width="30" height="80" as="geometry" />
        </mxCell>
        <mxCell id="fFUsiUg8K44ykZOcUOI2-130" value="" style="edgeStyle=orthogonalEdgeStyle;rounded=0;orthogonalLoop=1;jettySize=auto;html=1;" edge="1" parent="1" source="fFUsiUg8K44ykZOcUOI2-131" target="fFUsiUg8K44ykZOcUOI2-133">
          <mxGeometry relative="1" as="geometry" />
        </mxCell>
        <mxCell id="fFUsiUg8K44ykZOcUOI2-131" value="2" style="rounded=0;whiteSpace=wrap;html=1;" vertex="1" parent="1">
          <mxGeometry x="847" y="320" width="30" height="80" as="geometry" />
        </mxCell>
        <mxCell id="fFUsiUg8K44ykZOcUOI2-132" value="" style="edgeStyle=orthogonalEdgeStyle;rounded=0;orthogonalLoop=1;jettySize=auto;html=1;" edge="1" parent="1" source="fFUsiUg8K44ykZOcUOI2-133" target="fFUsiUg8K44ykZOcUOI2-135">
          <mxGeometry relative="1" as="geometry" />
        </mxCell>
        <mxCell id="fFUsiUg8K44ykZOcUOI2-133" value="3" style="rounded=0;whiteSpace=wrap;html=1;fillColor=#fa6800;strokeColor=#C73500;fontColor=#000000;" vertex="1" parent="1">
          <mxGeometry x="887" y="320" width="30" height="80" as="geometry" />
        </mxCell>
        <mxCell id="fFUsiUg8K44ykZOcUOI2-134" value="" style="edgeStyle=orthogonalEdgeStyle;rounded=0;orthogonalLoop=1;jettySize=auto;html=1;" edge="1" parent="1" source="fFUsiUg8K44ykZOcUOI2-135" target="fFUsiUg8K44ykZOcUOI2-136">
          <mxGeometry relative="1" as="geometry" />
        </mxCell>
        <mxCell id="fFUsiUg8K44ykZOcUOI2-135" value="4" style="rounded=0;whiteSpace=wrap;html=1;" vertex="1" parent="1">
          <mxGeometry x="927" y="320" width="30" height="80" as="geometry" />
        </mxCell>
        <mxCell id="fFUsiUg8K44ykZOcUOI2-136" value="5" style="rounded=0;whiteSpace=wrap;html=1;" vertex="1" parent="1">
          <mxGeometry x="967" y="320" width="30" height="80" as="geometry" />
        </mxCell>
        <mxCell id="fFUsiUg8K44ykZOcUOI2-138" style="edgeStyle=orthogonalEdgeStyle;rounded=0;orthogonalLoop=1;jettySize=auto;html=1;" edge="1" parent="1" source="fFUsiUg8K44ykZOcUOI2-142" target="fFUsiUg8K44ykZOcUOI2-144">
          <mxGeometry relative="1" as="geometry" />
        </mxCell>
        <mxCell id="fFUsiUg8K44ykZOcUOI2-139" style="edgeStyle=orthogonalEdgeStyle;rounded=0;orthogonalLoop=1;jettySize=auto;html=1;entryX=0.5;entryY=0;entryDx=0;entryDy=0;" edge="1" parent="1" source="fFUsiUg8K44ykZOcUOI2-142" target="fFUsiUg8K44ykZOcUOI2-146">
          <mxGeometry relative="1" as="geometry" />
        </mxCell>
        <mxCell id="fFUsiUg8K44ykZOcUOI2-140" style="edgeStyle=orthogonalEdgeStyle;rounded=0;orthogonalLoop=1;jettySize=auto;html=1;" edge="1" parent="1" source="fFUsiUg8K44ykZOcUOI2-142" target="fFUsiUg8K44ykZOcUOI2-148">
          <mxGeometry relative="1" as="geometry" />
        </mxCell>
        <mxCell id="fFUsiUg8K44ykZOcUOI2-141" style="edgeStyle=orthogonalEdgeStyle;rounded=0;orthogonalLoop=1;jettySize=auto;html=1;entryX=0.5;entryY=0;entryDx=0;entryDy=0;" edge="1" parent="1" source="fFUsiUg8K44ykZOcUOI2-142" target="fFUsiUg8K44ykZOcUOI2-149">
          <mxGeometry relative="1" as="geometry" />
        </mxCell>
        <mxCell id="fFUsiUg8K44ykZOcUOI2-142" value="ABRIL" style="rounded=0;whiteSpace=wrap;html=1;fillColor=#c3b0d1;" vertex="1" parent="1">
          <mxGeometry x="1031" y="80" width="159" height="80" as="geometry" />
        </mxCell>
        <mxCell id="fFUsiUg8K44ykZOcUOI2-143" value="" style="edgeStyle=orthogonalEdgeStyle;rounded=0;orthogonalLoop=1;jettySize=auto;html=1;" edge="1" parent="1" source="fFUsiUg8K44ykZOcUOI2-144" target="fFUsiUg8K44ykZOcUOI2-146">
          <mxGeometry relative="1" as="geometry" />
        </mxCell>
        <mxCell id="fFUsiUg8K44ykZOcUOI2-144" value="1" style="rounded=0;whiteSpace=wrap;html=1;" vertex="1" parent="1">
          <mxGeometry x="1031" y="200" width="30" height="80" as="geometry" />
        </mxCell>
        <mxCell id="fFUsiUg8K44ykZOcUOI2-145" value="" style="edgeStyle=orthogonalEdgeStyle;rounded=0;orthogonalLoop=1;jettySize=auto;html=1;" edge="1" parent="1" source="fFUsiUg8K44ykZOcUOI2-146" target="fFUsiUg8K44ykZOcUOI2-148">
          <mxGeometry relative="1" as="geometry" />
        </mxCell>
        <mxCell id="fFUsiUg8K44ykZOcUOI2-146" value="2" style="rounded=0;whiteSpace=wrap;html=1;" vertex="1" parent="1">
          <mxGeometry x="1071" y="200" width="30" height="80" as="geometry" />
        </mxCell>
        <mxCell id="fFUsiUg8K44ykZOcUOI2-147" value="" style="edgeStyle=orthogonalEdgeStyle;rounded=0;orthogonalLoop=1;jettySize=auto;html=1;" edge="1" parent="1" source="fFUsiUg8K44ykZOcUOI2-148" target="fFUsiUg8K44ykZOcUOI2-149">
          <mxGeometry relative="1" as="geometry" />
        </mxCell>
        <mxCell id="fFUsiUg8K44ykZOcUOI2-148" value="3" style="rounded=0;whiteSpace=wrap;html=1;" vertex="1" parent="1">
          <mxGeometry x="1111" y="200" width="30" height="80" as="geometry" />
        </mxCell>
        <mxCell id="fFUsiUg8K44ykZOcUOI2-149" value="4" style="rounded=0;whiteSpace=wrap;html=1;" vertex="1" parent="1">
          <mxGeometry x="1151" y="200" width="30" height="80" as="geometry" />
        </mxCell>
        <mxCell id="fFUsiUg8K44ykZOcUOI2-150" value="" style="edgeStyle=orthogonalEdgeStyle;rounded=0;orthogonalLoop=1;jettySize=auto;html=1;" edge="1" parent="1" source="fFUsiUg8K44ykZOcUOI2-151" target="fFUsiUg8K44ykZOcUOI2-153">
          <mxGeometry relative="1" as="geometry" />
        </mxCell>
        <mxCell id="fFUsiUg8K44ykZOcUOI2-151" value="1" style="rounded=0;whiteSpace=wrap;html=1;fillColor=#e51400;strokeColor=#B20000;fontColor=#ffffff;" vertex="1" parent="1">
          <mxGeometry x="1030" y="320" width="30" height="80" as="geometry" />
        </mxCell>
        <mxCell id="fFUsiUg8K44ykZOcUOI2-152" value="" style="edgeStyle=orthogonalEdgeStyle;rounded=0;orthogonalLoop=1;jettySize=auto;html=1;" edge="1" parent="1" source="fFUsiUg8K44ykZOcUOI2-153" target="fFUsiUg8K44ykZOcUOI2-155">
          <mxGeometry relative="1" as="geometry" />
        </mxCell>
        <mxCell id="fFUsiUg8K44ykZOcUOI2-153" value="2" style="rounded=0;whiteSpace=wrap;html=1;" vertex="1" parent="1">
          <mxGeometry x="1070" y="320" width="30" height="80" as="geometry" />
        </mxCell>
        <mxCell id="fFUsiUg8K44ykZOcUOI2-154" value="" style="edgeStyle=orthogonalEdgeStyle;rounded=0;orthogonalLoop=1;jettySize=auto;html=1;" edge="1" parent="1" source="fFUsiUg8K44ykZOcUOI2-155" target="fFUsiUg8K44ykZOcUOI2-156">
          <mxGeometry relative="1" as="geometry" />
        </mxCell>
        <mxCell id="fFUsiUg8K44ykZOcUOI2-155" value="3" style="rounded=0;whiteSpace=wrap;html=1;" vertex="1" parent="1">
          <mxGeometry x="1110" y="320" width="30" height="80" as="geometry" />
        </mxCell>
        <mxCell id="fFUsiUg8K44ykZOcUOI2-156" value="4" style="rounded=0;whiteSpace=wrap;html=1;" vertex="1" parent="1">
          <mxGeometry x="1150" y="320" width="30" height="80" as="geometry" />
        </mxCell>
        <mxCell id="fFUsiUg8K44ykZOcUOI2-158" style="edgeStyle=orthogonalEdgeStyle;rounded=0;orthogonalLoop=1;jettySize=auto;html=1;" edge="1" parent="1" source="fFUsiUg8K44ykZOcUOI2-162" target="fFUsiUg8K44ykZOcUOI2-164">
          <mxGeometry relative="1" as="geometry" />
        </mxCell>
        <mxCell id="fFUsiUg8K44ykZOcUOI2-159" style="edgeStyle=orthogonalEdgeStyle;rounded=0;orthogonalLoop=1;jettySize=auto;html=1;entryX=0.5;entryY=0;entryDx=0;entryDy=0;" edge="1" parent="1" source="fFUsiUg8K44ykZOcUOI2-162" target="fFUsiUg8K44ykZOcUOI2-166">
          <mxGeometry relative="1" as="geometry" />
        </mxCell>
        <mxCell id="fFUsiUg8K44ykZOcUOI2-160" style="edgeStyle=orthogonalEdgeStyle;rounded=0;orthogonalLoop=1;jettySize=auto;html=1;" edge="1" parent="1" source="fFUsiUg8K44ykZOcUOI2-162" target="fFUsiUg8K44ykZOcUOI2-168">
          <mxGeometry relative="1" as="geometry" />
        </mxCell>
        <mxCell id="fFUsiUg8K44ykZOcUOI2-161" style="edgeStyle=orthogonalEdgeStyle;rounded=0;orthogonalLoop=1;jettySize=auto;html=1;entryX=0.5;entryY=0;entryDx=0;entryDy=0;" edge="1" parent="1" source="fFUsiUg8K44ykZOcUOI2-162" target="fFUsiUg8K44ykZOcUOI2-169">
          <mxGeometry relative="1" as="geometry" />
        </mxCell>
        <mxCell id="fFUsiUg8K44ykZOcUOI2-162" value="MAYO" style="rounded=0;whiteSpace=wrap;html=1;fillColor=#dcb4c0;" vertex="1" parent="1">
          <mxGeometry x="1221" y="80" width="159" height="80" as="geometry" />
        </mxCell>
        <mxCell id="fFUsiUg8K44ykZOcUOI2-163" value="" style="edgeStyle=orthogonalEdgeStyle;rounded=0;orthogonalLoop=1;jettySize=auto;html=1;" edge="1" parent="1" source="fFUsiUg8K44ykZOcUOI2-164" target="fFUsiUg8K44ykZOcUOI2-166">
          <mxGeometry relative="1" as="geometry" />
        </mxCell>
        <mxCell id="fFUsiUg8K44ykZOcUOI2-164" value="1" style="rounded=0;whiteSpace=wrap;html=1;" vertex="1" parent="1">
          <mxGeometry x="1221" y="200" width="30" height="80" as="geometry" />
        </mxCell>
        <mxCell id="fFUsiUg8K44ykZOcUOI2-165" value="" style="edgeStyle=orthogonalEdgeStyle;rounded=0;orthogonalLoop=1;jettySize=auto;html=1;" edge="1" parent="1" source="fFUsiUg8K44ykZOcUOI2-166" target="fFUsiUg8K44ykZOcUOI2-168">
          <mxGeometry relative="1" as="geometry" />
        </mxCell>
        <mxCell id="fFUsiUg8K44ykZOcUOI2-166" value="2" style="rounded=0;whiteSpace=wrap;html=1;" vertex="1" parent="1">
          <mxGeometry x="1261" y="200" width="30" height="80" as="geometry" />
        </mxCell>
        <mxCell id="fFUsiUg8K44ykZOcUOI2-167" value="" style="edgeStyle=orthogonalEdgeStyle;rounded=0;orthogonalLoop=1;jettySize=auto;html=1;" edge="1" parent="1" source="fFUsiUg8K44ykZOcUOI2-168" target="fFUsiUg8K44ykZOcUOI2-169">
          <mxGeometry relative="1" as="geometry" />
        </mxCell>
        <mxCell id="fFUsiUg8K44ykZOcUOI2-168" value="3" style="rounded=0;whiteSpace=wrap;html=1;" vertex="1" parent="1">
          <mxGeometry x="1301" y="200" width="30" height="80" as="geometry" />
        </mxCell>
        <mxCell id="fFUsiUg8K44ykZOcUOI2-169" value="4" style="rounded=0;whiteSpace=wrap;html=1;" vertex="1" parent="1">
          <mxGeometry x="1341" y="200" width="30" height="80" as="geometry" />
        </mxCell>
        <mxCell id="fFUsiUg8K44ykZOcUOI2-170" value="" style="edgeStyle=orthogonalEdgeStyle;rounded=0;orthogonalLoop=1;jettySize=auto;html=1;" edge="1" parent="1" source="fFUsiUg8K44ykZOcUOI2-171" target="fFUsiUg8K44ykZOcUOI2-173">
          <mxGeometry relative="1" as="geometry" />
        </mxCell>
        <mxCell id="fFUsiUg8K44ykZOcUOI2-171" value="1" style="rounded=0;whiteSpace=wrap;html=1;" vertex="1" parent="1">
          <mxGeometry x="1220" y="320" width="30" height="80" as="geometry" />
        </mxCell>
        <mxCell id="fFUsiUg8K44ykZOcUOI2-172" value="" style="edgeStyle=orthogonalEdgeStyle;rounded=0;orthogonalLoop=1;jettySize=auto;html=1;" edge="1" parent="1" source="fFUsiUg8K44ykZOcUOI2-173" target="fFUsiUg8K44ykZOcUOI2-175">
          <mxGeometry relative="1" as="geometry" />
        </mxCell>
        <mxCell id="fFUsiUg8K44ykZOcUOI2-173" value="2" style="rounded=0;whiteSpace=wrap;html=1;" vertex="1" parent="1">
          <mxGeometry x="1260" y="320" width="30" height="80" as="geometry" />
        </mxCell>
        <mxCell id="fFUsiUg8K44ykZOcUOI2-174" value="" style="edgeStyle=orthogonalEdgeStyle;rounded=0;orthogonalLoop=1;jettySize=auto;html=1;" edge="1" parent="1" source="fFUsiUg8K44ykZOcUOI2-175" target="fFUsiUg8K44ykZOcUOI2-176">
          <mxGeometry relative="1" as="geometry" />
        </mxCell>
        <mxCell id="fFUsiUg8K44ykZOcUOI2-175" value="3" style="rounded=0;whiteSpace=wrap;html=1;" vertex="1" parent="1">
          <mxGeometry x="1300" y="320" width="30" height="80" as="geometry" />
        </mxCell>
        <mxCell id="fFUsiUg8K44ykZOcUOI2-176" value="4" style="rounded=0;whiteSpace=wrap;html=1;" vertex="1" parent="1">
          <mxGeometry x="1340" y="320" width="30" height="80" as="geometry" />
        </mxCell>
        <mxCell id="fFUsiUg8K44ykZOcUOI2-178" style="edgeStyle=orthogonalEdgeStyle;rounded=0;orthogonalLoop=1;jettySize=auto;html=1;" edge="1" parent="1" source="fFUsiUg8K44ykZOcUOI2-182" target="fFUsiUg8K44ykZOcUOI2-184">
          <mxGeometry relative="1" as="geometry" />
        </mxCell>
        <mxCell id="fFUsiUg8K44ykZOcUOI2-179" style="edgeStyle=orthogonalEdgeStyle;rounded=0;orthogonalLoop=1;jettySize=auto;html=1;entryX=0.5;entryY=0;entryDx=0;entryDy=0;" edge="1" parent="1" source="fFUsiUg8K44ykZOcUOI2-182" target="fFUsiUg8K44ykZOcUOI2-186">
          <mxGeometry relative="1" as="geometry" />
        </mxCell>
        <mxCell id="fFUsiUg8K44ykZOcUOI2-180" style="edgeStyle=orthogonalEdgeStyle;rounded=0;orthogonalLoop=1;jettySize=auto;html=1;" edge="1" parent="1" source="fFUsiUg8K44ykZOcUOI2-182" target="fFUsiUg8K44ykZOcUOI2-188">
          <mxGeometry relative="1" as="geometry" />
        </mxCell>
        <mxCell id="fFUsiUg8K44ykZOcUOI2-181" style="edgeStyle=orthogonalEdgeStyle;rounded=0;orthogonalLoop=1;jettySize=auto;html=1;entryX=0.5;entryY=0;entryDx=0;entryDy=0;" edge="1" parent="1" source="fFUsiUg8K44ykZOcUOI2-182" target="fFUsiUg8K44ykZOcUOI2-189">
          <mxGeometry relative="1" as="geometry" />
        </mxCell>
        <mxCell id="fFUsiUg8K44ykZOcUOI2-182" value="JUNIO" style="rounded=0;whiteSpace=wrap;html=1;fillColor=#f7b59a;" vertex="1" parent="1">
          <mxGeometry x="1411" y="80" width="159" height="80" as="geometry" />
        </mxCell>
        <mxCell id="fFUsiUg8K44ykZOcUOI2-183" value="" style="edgeStyle=orthogonalEdgeStyle;rounded=0;orthogonalLoop=1;jettySize=auto;html=1;" edge="1" parent="1" source="fFUsiUg8K44ykZOcUOI2-184" target="fFUsiUg8K44ykZOcUOI2-186">
          <mxGeometry relative="1" as="geometry" />
        </mxCell>
        <mxCell id="fFUsiUg8K44ykZOcUOI2-184" value="1" style="rounded=0;whiteSpace=wrap;html=1;" vertex="1" parent="1">
          <mxGeometry x="1411" y="200" width="30" height="80" as="geometry" />
        </mxCell>
        <mxCell id="fFUsiUg8K44ykZOcUOI2-185" value="" style="edgeStyle=orthogonalEdgeStyle;rounded=0;orthogonalLoop=1;jettySize=auto;html=1;" edge="1" parent="1" source="fFUsiUg8K44ykZOcUOI2-186" target="fFUsiUg8K44ykZOcUOI2-188">
          <mxGeometry relative="1" as="geometry" />
        </mxCell>
        <mxCell id="fFUsiUg8K44ykZOcUOI2-186" value="2" style="rounded=0;whiteSpace=wrap;html=1;" vertex="1" parent="1">
          <mxGeometry x="1451" y="200" width="30" height="80" as="geometry" />
        </mxCell>
        <mxCell id="fFUsiUg8K44ykZOcUOI2-187" value="" style="edgeStyle=orthogonalEdgeStyle;rounded=0;orthogonalLoop=1;jettySize=auto;html=1;" edge="1" parent="1" source="fFUsiUg8K44ykZOcUOI2-188" target="fFUsiUg8K44ykZOcUOI2-189">
          <mxGeometry relative="1" as="geometry" />
        </mxCell>
        <mxCell id="fFUsiUg8K44ykZOcUOI2-188" value="3" style="rounded=0;whiteSpace=wrap;html=1;" vertex="1" parent="1">
          <mxGeometry x="1491" y="200" width="30" height="80" as="geometry" />
        </mxCell>
        <mxCell id="fFUsiUg8K44ykZOcUOI2-189" value="4" style="rounded=0;whiteSpace=wrap;html=1;" vertex="1" parent="1">
          <mxGeometry x="1531" y="200" width="30" height="80" as="geometry" />
        </mxCell>
        <mxCell id="fFUsiUg8K44ykZOcUOI2-190" value="" style="edgeStyle=orthogonalEdgeStyle;rounded=0;orthogonalLoop=1;jettySize=auto;html=1;" edge="1" parent="1" source="fFUsiUg8K44ykZOcUOI2-191" target="fFUsiUg8K44ykZOcUOI2-193">
          <mxGeometry relative="1" as="geometry" />
        </mxCell>
        <mxCell id="fFUsiUg8K44ykZOcUOI2-191" value="1" style="rounded=0;whiteSpace=wrap;html=1;" vertex="1" parent="1">
          <mxGeometry x="1410" y="320" width="30" height="80" as="geometry" />
        </mxCell>
        <mxCell id="fFUsiUg8K44ykZOcUOI2-192" value="" style="edgeStyle=orthogonalEdgeStyle;rounded=0;orthogonalLoop=1;jettySize=auto;html=1;" edge="1" parent="1" source="fFUsiUg8K44ykZOcUOI2-193" target="fFUsiUg8K44ykZOcUOI2-195">
          <mxGeometry relative="1" as="geometry" />
        </mxCell>
        <mxCell id="fFUsiUg8K44ykZOcUOI2-193" value="2" style="rounded=0;whiteSpace=wrap;html=1;" vertex="1" parent="1">
          <mxGeometry x="1450" y="320" width="30" height="80" as="geometry" />
        </mxCell>
        <mxCell id="fFUsiUg8K44ykZOcUOI2-194" value="" style="edgeStyle=orthogonalEdgeStyle;rounded=0;orthogonalLoop=1;jettySize=auto;html=1;" edge="1" parent="1" source="fFUsiUg8K44ykZOcUOI2-195" target="fFUsiUg8K44ykZOcUOI2-196">
          <mxGeometry relative="1" as="geometry" />
        </mxCell>
        <mxCell id="fFUsiUg8K44ykZOcUOI2-195" value="3" style="rounded=0;whiteSpace=wrap;html=1;" vertex="1" parent="1">
          <mxGeometry x="1490" y="320" width="30" height="80" as="geometry" />
        </mxCell>
        <mxCell id="fFUsiUg8K44ykZOcUOI2-196" value="4" style="rounded=0;whiteSpace=wrap;html=1;" vertex="1" parent="1">
          <mxGeometry x="1530" y="320" width="30" height="80" as="geometry" />
        </mxCell>
        <mxCell id="fFUsiUg8K44ykZOcUOI2-198" style="edgeStyle=orthogonalEdgeStyle;rounded=0;orthogonalLoop=1;jettySize=auto;html=1;" edge="1" parent="1" source="fFUsiUg8K44ykZOcUOI2-202" target="fFUsiUg8K44ykZOcUOI2-204">
          <mxGeometry relative="1" as="geometry" />
        </mxCell>
        <mxCell id="fFUsiUg8K44ykZOcUOI2-199" style="edgeStyle=orthogonalEdgeStyle;rounded=0;orthogonalLoop=1;jettySize=auto;html=1;entryX=0.5;entryY=0;entryDx=0;entryDy=0;" edge="1" parent="1" source="fFUsiUg8K44ykZOcUOI2-202" target="fFUsiUg8K44ykZOcUOI2-206">
          <mxGeometry relative="1" as="geometry" />
        </mxCell>
        <mxCell id="fFUsiUg8K44ykZOcUOI2-200" style="edgeStyle=orthogonalEdgeStyle;rounded=0;orthogonalLoop=1;jettySize=auto;html=1;" edge="1" parent="1" source="fFUsiUg8K44ykZOcUOI2-202" target="fFUsiUg8K44ykZOcUOI2-208">
          <mxGeometry relative="1" as="geometry" />
        </mxCell>
        <mxCell id="fFUsiUg8K44ykZOcUOI2-201" style="edgeStyle=orthogonalEdgeStyle;rounded=0;orthogonalLoop=1;jettySize=auto;html=1;entryX=0.5;entryY=0;entryDx=0;entryDy=0;" edge="1" parent="1" source="fFUsiUg8K44ykZOcUOI2-202" target="fFUsiUg8K44ykZOcUOI2-209">
          <mxGeometry relative="1" as="geometry" />
        </mxCell>
        <mxCell id="fFUsiUg8K44ykZOcUOI2-202" value="JUL" style="rounded=0;whiteSpace=wrap;html=1;fillColor=#fab588;" vertex="1" parent="1">
          <mxGeometry x="1601" y="80" width="159" height="80" as="geometry" />
        </mxCell>
        <mxCell id="fFUsiUg8K44ykZOcUOI2-203" value="" style="edgeStyle=orthogonalEdgeStyle;rounded=0;orthogonalLoop=1;jettySize=auto;html=1;" edge="1" parent="1" source="fFUsiUg8K44ykZOcUOI2-204" target="fFUsiUg8K44ykZOcUOI2-206">
          <mxGeometry relative="1" as="geometry" />
        </mxCell>
        <mxCell id="fFUsiUg8K44ykZOcUOI2-204" value="1" style="rounded=0;whiteSpace=wrap;html=1;" vertex="1" parent="1">
          <mxGeometry x="1601" y="200" width="30" height="80" as="geometry" />
        </mxCell>
        <mxCell id="fFUsiUg8K44ykZOcUOI2-205" value="" style="edgeStyle=orthogonalEdgeStyle;rounded=0;orthogonalLoop=1;jettySize=auto;html=1;" edge="1" parent="1" source="fFUsiUg8K44ykZOcUOI2-206" target="fFUsiUg8K44ykZOcUOI2-208">
          <mxGeometry relative="1" as="geometry" />
        </mxCell>
        <mxCell id="fFUsiUg8K44ykZOcUOI2-206" value="2" style="rounded=0;whiteSpace=wrap;html=1;" vertex="1" parent="1">
          <mxGeometry x="1641" y="200" width="30" height="80" as="geometry" />
        </mxCell>
        <mxCell id="fFUsiUg8K44ykZOcUOI2-207" value="" style="edgeStyle=orthogonalEdgeStyle;rounded=0;orthogonalLoop=1;jettySize=auto;html=1;" edge="1" parent="1" source="fFUsiUg8K44ykZOcUOI2-208" target="fFUsiUg8K44ykZOcUOI2-209">
          <mxGeometry relative="1" as="geometry" />
        </mxCell>
        <mxCell id="fFUsiUg8K44ykZOcUOI2-208" value="3" style="rounded=0;whiteSpace=wrap;html=1;" vertex="1" parent="1">
          <mxGeometry x="1681" y="200" width="30" height="80" as="geometry" />
        </mxCell>
        <mxCell id="fFUsiUg8K44ykZOcUOI2-209" value="4" style="rounded=0;whiteSpace=wrap;html=1;" vertex="1" parent="1">
          <mxGeometry x="1721" y="200" width="30" height="80" as="geometry" />
        </mxCell>
        <mxCell id="fFUsiUg8K44ykZOcUOI2-210" value="" style="edgeStyle=orthogonalEdgeStyle;rounded=0;orthogonalLoop=1;jettySize=auto;html=1;" edge="1" parent="1" source="fFUsiUg8K44ykZOcUOI2-211" target="fFUsiUg8K44ykZOcUOI2-213">
          <mxGeometry relative="1" as="geometry" />
        </mxCell>
        <mxCell id="fFUsiUg8K44ykZOcUOI2-211" value="1" style="rounded=0;whiteSpace=wrap;html=1;" vertex="1" parent="1">
          <mxGeometry x="1600" y="320" width="30" height="80" as="geometry" />
        </mxCell>
        <mxCell id="fFUsiUg8K44ykZOcUOI2-212" value="" style="edgeStyle=orthogonalEdgeStyle;rounded=0;orthogonalLoop=1;jettySize=auto;html=1;" edge="1" parent="1" source="fFUsiUg8K44ykZOcUOI2-213" target="fFUsiUg8K44ykZOcUOI2-215">
          <mxGeometry relative="1" as="geometry" />
        </mxCell>
        <mxCell id="fFUsiUg8K44ykZOcUOI2-213" value="2" style="rounded=0;whiteSpace=wrap;html=1;" vertex="1" parent="1">
          <mxGeometry x="1640" y="320" width="30" height="80" as="geometry" />
        </mxCell>
        <mxCell id="fFUsiUg8K44ykZOcUOI2-214" value="" style="edgeStyle=orthogonalEdgeStyle;rounded=0;orthogonalLoop=1;jettySize=auto;html=1;" edge="1" parent="1" source="fFUsiUg8K44ykZOcUOI2-215" target="fFUsiUg8K44ykZOcUOI2-216">
          <mxGeometry relative="1" as="geometry" />
        </mxCell>
        <mxCell id="fFUsiUg8K44ykZOcUOI2-215" value="3" style="rounded=0;whiteSpace=wrap;html=1;fillColor=#fa6800;fontColor=#000000;strokeColor=#C73500;" vertex="1" parent="1">
          <mxGeometry x="1680" y="320" width="30" height="80" as="geometry" />
        </mxCell>
        <mxCell id="fFUsiUg8K44ykZOcUOI2-216" value="4" style="rounded=0;whiteSpace=wrap;html=1;" vertex="1" parent="1">
          <mxGeometry x="1720" y="320" width="30" height="80" as="geometry" />
        </mxCell>
        <mxCell id="fFUsiUg8K44ykZOcUOI2-218" style="edgeStyle=orthogonalEdgeStyle;rounded=0;orthogonalLoop=1;jettySize=auto;html=1;" edge="1" parent="1" source="fFUsiUg8K44ykZOcUOI2-222" target="fFUsiUg8K44ykZOcUOI2-224">
          <mxGeometry relative="1" as="geometry" />
        </mxCell>
        <mxCell id="fFUsiUg8K44ykZOcUOI2-219" style="edgeStyle=orthogonalEdgeStyle;rounded=0;orthogonalLoop=1;jettySize=auto;html=1;entryX=0.5;entryY=0;entryDx=0;entryDy=0;" edge="1" parent="1" source="fFUsiUg8K44ykZOcUOI2-222" target="fFUsiUg8K44ykZOcUOI2-226">
          <mxGeometry relative="1" as="geometry" />
        </mxCell>
        <mxCell id="fFUsiUg8K44ykZOcUOI2-220" style="edgeStyle=orthogonalEdgeStyle;rounded=0;orthogonalLoop=1;jettySize=auto;html=1;" edge="1" parent="1" source="fFUsiUg8K44ykZOcUOI2-222" target="fFUsiUg8K44ykZOcUOI2-228">
          <mxGeometry relative="1" as="geometry" />
        </mxCell>
        <mxCell id="fFUsiUg8K44ykZOcUOI2-221" style="edgeStyle=orthogonalEdgeStyle;rounded=0;orthogonalLoop=1;jettySize=auto;html=1;entryX=0.5;entryY=0;entryDx=0;entryDy=0;" edge="1" parent="1" source="fFUsiUg8K44ykZOcUOI2-222" target="fFUsiUg8K44ykZOcUOI2-229">
          <mxGeometry relative="1" as="geometry" />
        </mxCell>
        <mxCell id="fFUsiUg8K44ykZOcUOI2-222" value="AGOSTO" style="rounded=0;whiteSpace=wrap;html=1;fillColor=#90abdb;" vertex="1" parent="1">
          <mxGeometry x="1791" y="80" width="159" height="80" as="geometry" />
        </mxCell>
        <mxCell id="fFUsiUg8K44ykZOcUOI2-223" value="" style="edgeStyle=orthogonalEdgeStyle;rounded=0;orthogonalLoop=1;jettySize=auto;html=1;" edge="1" parent="1" source="fFUsiUg8K44ykZOcUOI2-224" target="fFUsiUg8K44ykZOcUOI2-226">
          <mxGeometry relative="1" as="geometry" />
        </mxCell>
        <mxCell id="fFUsiUg8K44ykZOcUOI2-224" value="1" style="rounded=0;whiteSpace=wrap;html=1;" vertex="1" parent="1">
          <mxGeometry x="1791" y="200" width="30" height="80" as="geometry" />
        </mxCell>
        <mxCell id="fFUsiUg8K44ykZOcUOI2-225" value="" style="edgeStyle=orthogonalEdgeStyle;rounded=0;orthogonalLoop=1;jettySize=auto;html=1;" edge="1" parent="1" source="fFUsiUg8K44ykZOcUOI2-226" target="fFUsiUg8K44ykZOcUOI2-228">
          <mxGeometry relative="1" as="geometry" />
        </mxCell>
        <mxCell id="fFUsiUg8K44ykZOcUOI2-226" value="2" style="rounded=0;whiteSpace=wrap;html=1;" vertex="1" parent="1">
          <mxGeometry x="1831" y="200" width="30" height="80" as="geometry" />
        </mxCell>
        <mxCell id="fFUsiUg8K44ykZOcUOI2-227" value="" style="edgeStyle=orthogonalEdgeStyle;rounded=0;orthogonalLoop=1;jettySize=auto;html=1;" edge="1" parent="1" source="fFUsiUg8K44ykZOcUOI2-228" target="fFUsiUg8K44ykZOcUOI2-229">
          <mxGeometry relative="1" as="geometry" />
        </mxCell>
        <mxCell id="fFUsiUg8K44ykZOcUOI2-228" value="3" style="rounded=0;whiteSpace=wrap;html=1;" vertex="1" parent="1">
          <mxGeometry x="1871" y="200" width="30" height="80" as="geometry" />
        </mxCell>
        <mxCell id="fFUsiUg8K44ykZOcUOI2-229" value="4" style="rounded=0;whiteSpace=wrap;html=1;" vertex="1" parent="1">
          <mxGeometry x="1911" y="200" width="30" height="80" as="geometry" />
        </mxCell>
        <mxCell id="fFUsiUg8K44ykZOcUOI2-230" value="" style="edgeStyle=orthogonalEdgeStyle;rounded=0;orthogonalLoop=1;jettySize=auto;html=1;" edge="1" parent="1" source="fFUsiUg8K44ykZOcUOI2-231" target="fFUsiUg8K44ykZOcUOI2-233">
          <mxGeometry relative="1" as="geometry" />
        </mxCell>
        <mxCell id="fFUsiUg8K44ykZOcUOI2-231" value="1" style="rounded=0;whiteSpace=wrap;html=1;" vertex="1" parent="1">
          <mxGeometry x="1790" y="320" width="30" height="80" as="geometry" />
        </mxCell>
        <mxCell id="fFUsiUg8K44ykZOcUOI2-232" value="" style="edgeStyle=orthogonalEdgeStyle;rounded=0;orthogonalLoop=1;jettySize=auto;html=1;" edge="1" parent="1" source="fFUsiUg8K44ykZOcUOI2-233" target="fFUsiUg8K44ykZOcUOI2-235">
          <mxGeometry relative="1" as="geometry" />
        </mxCell>
        <mxCell id="fFUsiUg8K44ykZOcUOI2-233" value="2" style="rounded=0;whiteSpace=wrap;html=1;" vertex="1" parent="1">
          <mxGeometry x="1830" y="320" width="30" height="80" as="geometry" />
        </mxCell>
        <mxCell id="fFUsiUg8K44ykZOcUOI2-234" value="" style="edgeStyle=orthogonalEdgeStyle;rounded=0;orthogonalLoop=1;jettySize=auto;html=1;" edge="1" parent="1" source="fFUsiUg8K44ykZOcUOI2-235" target="fFUsiUg8K44ykZOcUOI2-236">
          <mxGeometry relative="1" as="geometry" />
        </mxCell>
        <mxCell id="fFUsiUg8K44ykZOcUOI2-235" value="3" style="rounded=0;whiteSpace=wrap;html=1;" vertex="1" parent="1">
          <mxGeometry x="1870" y="320" width="30" height="80" as="geometry" />
        </mxCell>
        <mxCell id="fFUsiUg8K44ykZOcUOI2-236" value="4" style="rounded=0;whiteSpace=wrap;html=1;" vertex="1" parent="1">
          <mxGeometry x="1910" y="320" width="30" height="80" as="geometry" />
        </mxCell>
        <mxCell id="fFUsiUg8K44ykZOcUOI2-238" style="edgeStyle=orthogonalEdgeStyle;rounded=0;orthogonalLoop=1;jettySize=auto;html=1;" edge="1" parent="1" source="fFUsiUg8K44ykZOcUOI2-243" target="fFUsiUg8K44ykZOcUOI2-245">
          <mxGeometry relative="1" as="geometry" />
        </mxCell>
        <mxCell id="fFUsiUg8K44ykZOcUOI2-239" style="edgeStyle=orthogonalEdgeStyle;rounded=0;orthogonalLoop=1;jettySize=auto;html=1;entryX=0.5;entryY=0;entryDx=0;entryDy=0;" edge="1" parent="1" source="fFUsiUg8K44ykZOcUOI2-243" target="fFUsiUg8K44ykZOcUOI2-247">
          <mxGeometry relative="1" as="geometry" />
        </mxCell>
        <mxCell id="fFUsiUg8K44ykZOcUOI2-240" style="edgeStyle=orthogonalEdgeStyle;rounded=0;orthogonalLoop=1;jettySize=auto;html=1;" edge="1" parent="1" source="fFUsiUg8K44ykZOcUOI2-243" target="fFUsiUg8K44ykZOcUOI2-249">
          <mxGeometry relative="1" as="geometry" />
        </mxCell>
        <mxCell id="fFUsiUg8K44ykZOcUOI2-241" style="edgeStyle=orthogonalEdgeStyle;rounded=0;orthogonalLoop=1;jettySize=auto;html=1;entryX=0.5;entryY=0;entryDx=0;entryDy=0;" edge="1" parent="1" source="fFUsiUg8K44ykZOcUOI2-243" target="fFUsiUg8K44ykZOcUOI2-251">
          <mxGeometry relative="1" as="geometry" />
        </mxCell>
        <mxCell id="fFUsiUg8K44ykZOcUOI2-242" style="edgeStyle=orthogonalEdgeStyle;rounded=0;orthogonalLoop=1;jettySize=auto;html=1;entryX=0.5;entryY=0;entryDx=0;entryDy=0;" edge="1" parent="1" source="fFUsiUg8K44ykZOcUOI2-243" target="fFUsiUg8K44ykZOcUOI2-252">
          <mxGeometry relative="1" as="geometry" />
        </mxCell>
        <mxCell id="fFUsiUg8K44ykZOcUOI2-243" value="SEPTIEMBRE" style="rounded=0;whiteSpace=wrap;html=1;fillColor=#ccb3cc;" vertex="1" parent="1">
          <mxGeometry x="1981" y="80" width="190" height="80" as="geometry" />
        </mxCell>
        <mxCell id="fFUsiUg8K44ykZOcUOI2-244" value="" style="edgeStyle=orthogonalEdgeStyle;rounded=0;orthogonalLoop=1;jettySize=auto;html=1;" edge="1" parent="1" source="fFUsiUg8K44ykZOcUOI2-245" target="fFUsiUg8K44ykZOcUOI2-247">
          <mxGeometry relative="1" as="geometry" />
        </mxCell>
        <mxCell id="fFUsiUg8K44ykZOcUOI2-245" value="1" style="rounded=0;whiteSpace=wrap;html=1;" vertex="1" parent="1">
          <mxGeometry x="1981" y="200" width="30" height="80" as="geometry" />
        </mxCell>
        <mxCell id="fFUsiUg8K44ykZOcUOI2-246" value="" style="edgeStyle=orthogonalEdgeStyle;rounded=0;orthogonalLoop=1;jettySize=auto;html=1;" edge="1" parent="1" source="fFUsiUg8K44ykZOcUOI2-247" target="fFUsiUg8K44ykZOcUOI2-249">
          <mxGeometry relative="1" as="geometry" />
        </mxCell>
        <mxCell id="fFUsiUg8K44ykZOcUOI2-247" value="2" style="rounded=0;whiteSpace=wrap;html=1;" vertex="1" parent="1">
          <mxGeometry x="2021" y="200" width="30" height="80" as="geometry" />
        </mxCell>
        <mxCell id="fFUsiUg8K44ykZOcUOI2-248" value="" style="edgeStyle=orthogonalEdgeStyle;rounded=0;orthogonalLoop=1;jettySize=auto;html=1;" edge="1" parent="1" source="fFUsiUg8K44ykZOcUOI2-249" target="fFUsiUg8K44ykZOcUOI2-251">
          <mxGeometry relative="1" as="geometry" />
        </mxCell>
        <mxCell id="fFUsiUg8K44ykZOcUOI2-249" value="3" style="rounded=0;whiteSpace=wrap;html=1;" vertex="1" parent="1">
          <mxGeometry x="2061" y="200" width="30" height="80" as="geometry" />
        </mxCell>
        <mxCell id="fFUsiUg8K44ykZOcUOI2-250" value="" style="edgeStyle=orthogonalEdgeStyle;rounded=0;orthogonalLoop=1;jettySize=auto;html=1;" edge="1" parent="1" source="fFUsiUg8K44ykZOcUOI2-251" target="fFUsiUg8K44ykZOcUOI2-252">
          <mxGeometry relative="1" as="geometry" />
        </mxCell>
        <mxCell id="fFUsiUg8K44ykZOcUOI2-251" value="4" style="rounded=0;whiteSpace=wrap;html=1;" vertex="1" parent="1">
          <mxGeometry x="2101" y="200" width="30" height="80" as="geometry" />
        </mxCell>
        <mxCell id="fFUsiUg8K44ykZOcUOI2-252" value="5" style="rounded=0;whiteSpace=wrap;html=1;" vertex="1" parent="1">
          <mxGeometry x="2141" y="200" width="30" height="80" as="geometry" />
        </mxCell>
        <mxCell id="fFUsiUg8K44ykZOcUOI2-253" value="" style="edgeStyle=orthogonalEdgeStyle;rounded=0;orthogonalLoop=1;jettySize=auto;html=1;" edge="1" parent="1" source="fFUsiUg8K44ykZOcUOI2-254" target="fFUsiUg8K44ykZOcUOI2-256">
          <mxGeometry relative="1" as="geometry" />
        </mxCell>
        <mxCell id="fFUsiUg8K44ykZOcUOI2-254" value="1" style="rounded=0;whiteSpace=wrap;html=1;fillColor=#e51400;fontColor=#ffffff;strokeColor=#B20000;" vertex="1" parent="1">
          <mxGeometry x="1980" y="320" width="30" height="80" as="geometry" />
        </mxCell>
        <mxCell id="fFUsiUg8K44ykZOcUOI2-255" value="" style="edgeStyle=orthogonalEdgeStyle;rounded=0;orthogonalLoop=1;jettySize=auto;html=1;" edge="1" parent="1" source="fFUsiUg8K44ykZOcUOI2-256" target="fFUsiUg8K44ykZOcUOI2-258">
          <mxGeometry relative="1" as="geometry" />
        </mxCell>
        <mxCell id="fFUsiUg8K44ykZOcUOI2-256" value="2" style="rounded=0;whiteSpace=wrap;html=1;" vertex="1" parent="1">
          <mxGeometry x="2020" y="320" width="30" height="80" as="geometry" />
        </mxCell>
        <mxCell id="fFUsiUg8K44ykZOcUOI2-257" value="" style="edgeStyle=orthogonalEdgeStyle;rounded=0;orthogonalLoop=1;jettySize=auto;html=1;" edge="1" parent="1" source="fFUsiUg8K44ykZOcUOI2-258" target="fFUsiUg8K44ykZOcUOI2-260">
          <mxGeometry relative="1" as="geometry" />
        </mxCell>
        <mxCell id="fFUsiUg8K44ykZOcUOI2-258" value="3" style="rounded=0;whiteSpace=wrap;html=1;" vertex="1" parent="1">
          <mxGeometry x="2060" y="320" width="30" height="80" as="geometry" />
        </mxCell>
        <mxCell id="fFUsiUg8K44ykZOcUOI2-259" value="" style="edgeStyle=orthogonalEdgeStyle;rounded=0;orthogonalLoop=1;jettySize=auto;html=1;" edge="1" parent="1" source="fFUsiUg8K44ykZOcUOI2-260" target="fFUsiUg8K44ykZOcUOI2-261">
          <mxGeometry relative="1" as="geometry" />
        </mxCell>
        <mxCell id="fFUsiUg8K44ykZOcUOI2-260" value="4" style="rounded=0;whiteSpace=wrap;html=1;" vertex="1" parent="1">
          <mxGeometry x="2100" y="320" width="30" height="80" as="geometry" />
        </mxCell>
        <mxCell id="fFUsiUg8K44ykZOcUOI2-261" value="5" style="rounded=0;whiteSpace=wrap;html=1;" vertex="1" parent="1">
          <mxGeometry x="2140" y="320" width="30" height="80" as="geometry" />
        </mxCell>
        <mxCell id="fFUsiUg8K44ykZOcUOI2-263" style="edgeStyle=orthogonalEdgeStyle;rounded=0;orthogonalLoop=1;jettySize=auto;html=1;" edge="1" parent="1" source="fFUsiUg8K44ykZOcUOI2-267" target="fFUsiUg8K44ykZOcUOI2-269">
          <mxGeometry relative="1" as="geometry" />
        </mxCell>
        <mxCell id="fFUsiUg8K44ykZOcUOI2-264" style="edgeStyle=orthogonalEdgeStyle;rounded=0;orthogonalLoop=1;jettySize=auto;html=1;entryX=0.5;entryY=0;entryDx=0;entryDy=0;" edge="1" parent="1" source="fFUsiUg8K44ykZOcUOI2-267" target="fFUsiUg8K44ykZOcUOI2-271">
          <mxGeometry relative="1" as="geometry" />
        </mxCell>
        <mxCell id="fFUsiUg8K44ykZOcUOI2-265" style="edgeStyle=orthogonalEdgeStyle;rounded=0;orthogonalLoop=1;jettySize=auto;html=1;" edge="1" parent="1" source="fFUsiUg8K44ykZOcUOI2-267" target="fFUsiUg8K44ykZOcUOI2-273">
          <mxGeometry relative="1" as="geometry" />
        </mxCell>
        <mxCell id="fFUsiUg8K44ykZOcUOI2-266" style="edgeStyle=orthogonalEdgeStyle;rounded=0;orthogonalLoop=1;jettySize=auto;html=1;entryX=0.5;entryY=0;entryDx=0;entryDy=0;" edge="1" parent="1" source="fFUsiUg8K44ykZOcUOI2-267" target="fFUsiUg8K44ykZOcUOI2-274">
          <mxGeometry relative="1" as="geometry" />
        </mxCell>
        <mxCell id="fFUsiUg8K44ykZOcUOI2-267" value="OCTRUBRE" style="rounded=0;whiteSpace=wrap;html=1;fillColor=#e6b5bc;" vertex="1" parent="1">
          <mxGeometry x="2201" y="80" width="159" height="80" as="geometry" />
        </mxCell>
        <mxCell id="fFUsiUg8K44ykZOcUOI2-268" value="" style="edgeStyle=orthogonalEdgeStyle;rounded=0;orthogonalLoop=1;jettySize=auto;html=1;" edge="1" parent="1" source="fFUsiUg8K44ykZOcUOI2-269" target="fFUsiUg8K44ykZOcUOI2-271">
          <mxGeometry relative="1" as="geometry" />
        </mxCell>
        <mxCell id="fFUsiUg8K44ykZOcUOI2-269" value="1" style="rounded=0;whiteSpace=wrap;html=1;" vertex="1" parent="1">
          <mxGeometry x="2201" y="200" width="30" height="80" as="geometry" />
        </mxCell>
        <mxCell id="fFUsiUg8K44ykZOcUOI2-270" value="" style="edgeStyle=orthogonalEdgeStyle;rounded=0;orthogonalLoop=1;jettySize=auto;html=1;" edge="1" parent="1" source="fFUsiUg8K44ykZOcUOI2-271" target="fFUsiUg8K44ykZOcUOI2-273">
          <mxGeometry relative="1" as="geometry" />
        </mxCell>
        <mxCell id="fFUsiUg8K44ykZOcUOI2-271" value="2" style="rounded=0;whiteSpace=wrap;html=1;" vertex="1" parent="1">
          <mxGeometry x="2241" y="200" width="30" height="80" as="geometry" />
        </mxCell>
        <mxCell id="fFUsiUg8K44ykZOcUOI2-272" value="" style="edgeStyle=orthogonalEdgeStyle;rounded=0;orthogonalLoop=1;jettySize=auto;html=1;" edge="1" parent="1" source="fFUsiUg8K44ykZOcUOI2-273" target="fFUsiUg8K44ykZOcUOI2-274">
          <mxGeometry relative="1" as="geometry" />
        </mxCell>
        <mxCell id="fFUsiUg8K44ykZOcUOI2-273" value="3" style="rounded=0;whiteSpace=wrap;html=1;" vertex="1" parent="1">
          <mxGeometry x="2281" y="200" width="30" height="80" as="geometry" />
        </mxCell>
        <mxCell id="fFUsiUg8K44ykZOcUOI2-274" value="4" style="rounded=0;whiteSpace=wrap;html=1;" vertex="1" parent="1">
          <mxGeometry x="2321" y="200" width="30" height="80" as="geometry" />
        </mxCell>
        <mxCell id="fFUsiUg8K44ykZOcUOI2-275" value="" style="edgeStyle=orthogonalEdgeStyle;rounded=0;orthogonalLoop=1;jettySize=auto;html=1;" edge="1" parent="1" source="fFUsiUg8K44ykZOcUOI2-276" target="fFUsiUg8K44ykZOcUOI2-278">
          <mxGeometry relative="1" as="geometry" />
        </mxCell>
        <mxCell id="fFUsiUg8K44ykZOcUOI2-276" value="1" style="rounded=0;whiteSpace=wrap;html=1;" vertex="1" parent="1">
          <mxGeometry x="2200" y="320" width="30" height="80" as="geometry" />
        </mxCell>
        <mxCell id="fFUsiUg8K44ykZOcUOI2-277" value="" style="edgeStyle=orthogonalEdgeStyle;rounded=0;orthogonalLoop=1;jettySize=auto;html=1;" edge="1" parent="1" source="fFUsiUg8K44ykZOcUOI2-278" target="fFUsiUg8K44ykZOcUOI2-280">
          <mxGeometry relative="1" as="geometry" />
        </mxCell>
        <mxCell id="fFUsiUg8K44ykZOcUOI2-278" value="2" style="rounded=0;whiteSpace=wrap;html=1;" vertex="1" parent="1">
          <mxGeometry x="2240" y="320" width="30" height="80" as="geometry" />
        </mxCell>
        <mxCell id="fFUsiUg8K44ykZOcUOI2-279" value="" style="edgeStyle=orthogonalEdgeStyle;rounded=0;orthogonalLoop=1;jettySize=auto;html=1;" edge="1" parent="1" source="fFUsiUg8K44ykZOcUOI2-280" target="fFUsiUg8K44ykZOcUOI2-281">
          <mxGeometry relative="1" as="geometry" />
        </mxCell>
        <mxCell id="fFUsiUg8K44ykZOcUOI2-280" value="3" style="rounded=0;whiteSpace=wrap;html=1;" vertex="1" parent="1">
          <mxGeometry x="2280" y="320" width="30" height="80" as="geometry" />
        </mxCell>
        <mxCell id="fFUsiUg8K44ykZOcUOI2-281" value="4" style="rounded=0;whiteSpace=wrap;html=1;" vertex="1" parent="1">
          <mxGeometry x="2320" y="320" width="30" height="80" as="geometry" />
        </mxCell>
        <mxCell id="fFUsiUg8K44ykZOcUOI2-283" style="edgeStyle=orthogonalEdgeStyle;rounded=0;orthogonalLoop=1;jettySize=auto;html=1;" edge="1" parent="1" source="fFUsiUg8K44ykZOcUOI2-288" target="fFUsiUg8K44ykZOcUOI2-290">
          <mxGeometry relative="1" as="geometry" />
        </mxCell>
        <mxCell id="fFUsiUg8K44ykZOcUOI2-284" style="edgeStyle=orthogonalEdgeStyle;rounded=0;orthogonalLoop=1;jettySize=auto;html=1;entryX=0.5;entryY=0;entryDx=0;entryDy=0;" edge="1" parent="1" source="fFUsiUg8K44ykZOcUOI2-288" target="fFUsiUg8K44ykZOcUOI2-292">
          <mxGeometry relative="1" as="geometry" />
        </mxCell>
        <mxCell id="fFUsiUg8K44ykZOcUOI2-285" style="edgeStyle=orthogonalEdgeStyle;rounded=0;orthogonalLoop=1;jettySize=auto;html=1;" edge="1" parent="1" source="fFUsiUg8K44ykZOcUOI2-288" target="fFUsiUg8K44ykZOcUOI2-294">
          <mxGeometry relative="1" as="geometry" />
        </mxCell>
        <mxCell id="fFUsiUg8K44ykZOcUOI2-286" style="edgeStyle=orthogonalEdgeStyle;rounded=0;orthogonalLoop=1;jettySize=auto;html=1;entryX=0.5;entryY=0;entryDx=0;entryDy=0;" edge="1" parent="1" source="fFUsiUg8K44ykZOcUOI2-288" target="fFUsiUg8K44ykZOcUOI2-296">
          <mxGeometry relative="1" as="geometry" />
        </mxCell>
        <mxCell id="fFUsiUg8K44ykZOcUOI2-287" style="edgeStyle=orthogonalEdgeStyle;rounded=0;orthogonalLoop=1;jettySize=auto;html=1;entryX=0.5;entryY=0;entryDx=0;entryDy=0;" edge="1" parent="1" source="fFUsiUg8K44ykZOcUOI2-288" target="fFUsiUg8K44ykZOcUOI2-297">
          <mxGeometry relative="1" as="geometry" />
        </mxCell>
        <mxCell id="fFUsiUg8K44ykZOcUOI2-288" value="DICIEMBRE" style="rounded=0;whiteSpace=wrap;html=1;fillColor=#fab585;" vertex="1" parent="1">
          <mxGeometry x="2581" y="80" width="190" height="80" as="geometry" />
        </mxCell>
        <mxCell id="fFUsiUg8K44ykZOcUOI2-289" value="" style="edgeStyle=orthogonalEdgeStyle;rounded=0;orthogonalLoop=1;jettySize=auto;html=1;" edge="1" parent="1" source="fFUsiUg8K44ykZOcUOI2-290" target="fFUsiUg8K44ykZOcUOI2-292">
          <mxGeometry relative="1" as="geometry" />
        </mxCell>
        <mxCell id="fFUsiUg8K44ykZOcUOI2-290" value="1" style="rounded=0;whiteSpace=wrap;html=1;" vertex="1" parent="1">
          <mxGeometry x="2581" y="200" width="30" height="80" as="geometry" />
        </mxCell>
        <mxCell id="fFUsiUg8K44ykZOcUOI2-291" value="" style="edgeStyle=orthogonalEdgeStyle;rounded=0;orthogonalLoop=1;jettySize=auto;html=1;" edge="1" parent="1" source="fFUsiUg8K44ykZOcUOI2-292" target="fFUsiUg8K44ykZOcUOI2-294">
          <mxGeometry relative="1" as="geometry" />
        </mxCell>
        <mxCell id="fFUsiUg8K44ykZOcUOI2-292" value="2" style="rounded=0;whiteSpace=wrap;html=1;" vertex="1" parent="1">
          <mxGeometry x="2621" y="200" width="30" height="80" as="geometry" />
        </mxCell>
        <mxCell id="fFUsiUg8K44ykZOcUOI2-293" value="" style="edgeStyle=orthogonalEdgeStyle;rounded=0;orthogonalLoop=1;jettySize=auto;html=1;" edge="1" parent="1" source="fFUsiUg8K44ykZOcUOI2-294" target="fFUsiUg8K44ykZOcUOI2-296">
          <mxGeometry relative="1" as="geometry" />
        </mxCell>
        <mxCell id="fFUsiUg8K44ykZOcUOI2-294" value="3" style="rounded=0;whiteSpace=wrap;html=1;" vertex="1" parent="1">
          <mxGeometry x="2661" y="200" width="30" height="80" as="geometry" />
        </mxCell>
        <mxCell id="fFUsiUg8K44ykZOcUOI2-295" value="" style="edgeStyle=orthogonalEdgeStyle;rounded=0;orthogonalLoop=1;jettySize=auto;html=1;" edge="1" parent="1" source="fFUsiUg8K44ykZOcUOI2-296" target="fFUsiUg8K44ykZOcUOI2-297">
          <mxGeometry relative="1" as="geometry" />
        </mxCell>
        <mxCell id="fFUsiUg8K44ykZOcUOI2-296" value="4" style="rounded=0;whiteSpace=wrap;html=1;" vertex="1" parent="1">
          <mxGeometry x="2701" y="200" width="30" height="80" as="geometry" />
        </mxCell>
        <mxCell id="fFUsiUg8K44ykZOcUOI2-297" value="5" style="rounded=0;whiteSpace=wrap;html=1;" vertex="1" parent="1">
          <mxGeometry x="2741" y="200" width="30" height="80" as="geometry" />
        </mxCell>
        <mxCell id="fFUsiUg8K44ykZOcUOI2-298" value="" style="edgeStyle=orthogonalEdgeStyle;rounded=0;orthogonalLoop=1;jettySize=auto;html=1;" edge="1" parent="1" source="fFUsiUg8K44ykZOcUOI2-299" target="fFUsiUg8K44ykZOcUOI2-301">
          <mxGeometry relative="1" as="geometry" />
        </mxCell>
        <mxCell id="fFUsiUg8K44ykZOcUOI2-299" value="1" style="rounded=0;whiteSpace=wrap;html=1;" vertex="1" parent="1">
          <mxGeometry x="2580" y="320" width="30" height="80" as="geometry" />
        </mxCell>
        <mxCell id="fFUsiUg8K44ykZOcUOI2-300" value="" style="edgeStyle=orthogonalEdgeStyle;rounded=0;orthogonalLoop=1;jettySize=auto;html=1;" edge="1" parent="1" source="fFUsiUg8K44ykZOcUOI2-301" target="fFUsiUg8K44ykZOcUOI2-303">
          <mxGeometry relative="1" as="geometry" />
        </mxCell>
        <mxCell id="fFUsiUg8K44ykZOcUOI2-301" value="2" style="rounded=0;whiteSpace=wrap;html=1;" vertex="1" parent="1">
          <mxGeometry x="2620" y="320" width="30" height="80" as="geometry" />
        </mxCell>
        <mxCell id="fFUsiUg8K44ykZOcUOI2-302" value="" style="edgeStyle=orthogonalEdgeStyle;rounded=0;orthogonalLoop=1;jettySize=auto;html=1;" edge="1" parent="1" source="fFUsiUg8K44ykZOcUOI2-303" target="fFUsiUg8K44ykZOcUOI2-305">
          <mxGeometry relative="1" as="geometry" />
        </mxCell>
        <mxCell id="fFUsiUg8K44ykZOcUOI2-303" value="3" style="rounded=0;whiteSpace=wrap;html=1;" vertex="1" parent="1">
          <mxGeometry x="2660" y="320" width="30" height="80" as="geometry" />
        </mxCell>
        <mxCell id="fFUsiUg8K44ykZOcUOI2-304" value="" style="edgeStyle=orthogonalEdgeStyle;rounded=0;orthogonalLoop=1;jettySize=auto;html=1;" edge="1" parent="1" source="fFUsiUg8K44ykZOcUOI2-305" target="fFUsiUg8K44ykZOcUOI2-306">
          <mxGeometry relative="1" as="geometry" />
        </mxCell>
        <mxCell id="fFUsiUg8K44ykZOcUOI2-305" value="4" style="rounded=0;whiteSpace=wrap;html=1;" vertex="1" parent="1">
          <mxGeometry x="2700" y="320" width="30" height="80" as="geometry" />
        </mxCell>
        <mxCell id="fFUsiUg8K44ykZOcUOI2-306" value="5" style="rounded=0;whiteSpace=wrap;html=1;fillColor=#e51400;fontColor=#ffffff;strokeColor=#B20000;" vertex="1" parent="1">
          <mxGeometry x="2740" y="320" width="30" height="80" as="geometry" />
        </mxCell>
        <mxCell id="fFUsiUg8K44ykZOcUOI2-308" style="edgeStyle=orthogonalEdgeStyle;rounded=0;orthogonalLoop=1;jettySize=auto;html=1;" edge="1" parent="1" source="fFUsiUg8K44ykZOcUOI2-312" target="fFUsiUg8K44ykZOcUOI2-314">
          <mxGeometry relative="1" as="geometry" />
        </mxCell>
        <mxCell id="fFUsiUg8K44ykZOcUOI2-309" style="edgeStyle=orthogonalEdgeStyle;rounded=0;orthogonalLoop=1;jettySize=auto;html=1;entryX=0.5;entryY=0;entryDx=0;entryDy=0;" edge="1" parent="1" source="fFUsiUg8K44ykZOcUOI2-312" target="fFUsiUg8K44ykZOcUOI2-316">
          <mxGeometry relative="1" as="geometry" />
        </mxCell>
        <mxCell id="fFUsiUg8K44ykZOcUOI2-310" style="edgeStyle=orthogonalEdgeStyle;rounded=0;orthogonalLoop=1;jettySize=auto;html=1;" edge="1" parent="1" source="fFUsiUg8K44ykZOcUOI2-312" target="fFUsiUg8K44ykZOcUOI2-318">
          <mxGeometry relative="1" as="geometry" />
        </mxCell>
        <mxCell id="fFUsiUg8K44ykZOcUOI2-311" style="edgeStyle=orthogonalEdgeStyle;rounded=0;orthogonalLoop=1;jettySize=auto;html=1;entryX=0.5;entryY=0;entryDx=0;entryDy=0;" edge="1" parent="1" source="fFUsiUg8K44ykZOcUOI2-312" target="fFUsiUg8K44ykZOcUOI2-319">
          <mxGeometry relative="1" as="geometry" />
        </mxCell>
        <mxCell id="fFUsiUg8K44ykZOcUOI2-312" value="NOVIEMBRE" style="rounded=0;whiteSpace=wrap;html=1;fillColor=#eeb6a3;" vertex="1" parent="1">
          <mxGeometry x="2391" y="80" width="159" height="80" as="geometry" />
        </mxCell>
        <mxCell id="fFUsiUg8K44ykZOcUOI2-313" value="" style="edgeStyle=orthogonalEdgeStyle;rounded=0;orthogonalLoop=1;jettySize=auto;html=1;" edge="1" parent="1" source="fFUsiUg8K44ykZOcUOI2-314" target="fFUsiUg8K44ykZOcUOI2-316">
          <mxGeometry relative="1" as="geometry" />
        </mxCell>
        <mxCell id="fFUsiUg8K44ykZOcUOI2-314" value="1" style="rounded=0;whiteSpace=wrap;html=1;" vertex="1" parent="1">
          <mxGeometry x="2391" y="200" width="30" height="80" as="geometry" />
        </mxCell>
        <mxCell id="fFUsiUg8K44ykZOcUOI2-315" value="" style="edgeStyle=orthogonalEdgeStyle;rounded=0;orthogonalLoop=1;jettySize=auto;html=1;" edge="1" parent="1" source="fFUsiUg8K44ykZOcUOI2-316" target="fFUsiUg8K44ykZOcUOI2-318">
          <mxGeometry relative="1" as="geometry" />
        </mxCell>
        <mxCell id="fFUsiUg8K44ykZOcUOI2-316" value="2" style="rounded=0;whiteSpace=wrap;html=1;" vertex="1" parent="1">
          <mxGeometry x="2431" y="200" width="30" height="80" as="geometry" />
        </mxCell>
        <mxCell id="fFUsiUg8K44ykZOcUOI2-317" value="" style="edgeStyle=orthogonalEdgeStyle;rounded=0;orthogonalLoop=1;jettySize=auto;html=1;" edge="1" parent="1" source="fFUsiUg8K44ykZOcUOI2-318" target="fFUsiUg8K44ykZOcUOI2-319">
          <mxGeometry relative="1" as="geometry" />
        </mxCell>
        <mxCell id="fFUsiUg8K44ykZOcUOI2-318" value="3" style="rounded=0;whiteSpace=wrap;html=1;" vertex="1" parent="1">
          <mxGeometry x="2471" y="200" width="30" height="80" as="geometry" />
        </mxCell>
        <mxCell id="fFUsiUg8K44ykZOcUOI2-319" value="4" style="rounded=0;whiteSpace=wrap;html=1;" vertex="1" parent="1">
          <mxGeometry x="2511" y="200" width="30" height="80" as="geometry" />
        </mxCell>
        <mxCell id="fFUsiUg8K44ykZOcUOI2-320" value="" style="edgeStyle=orthogonalEdgeStyle;rounded=0;orthogonalLoop=1;jettySize=auto;html=1;" edge="1" parent="1" source="fFUsiUg8K44ykZOcUOI2-321" target="fFUsiUg8K44ykZOcUOI2-323">
          <mxGeometry relative="1" as="geometry" />
        </mxCell>
        <mxCell id="fFUsiUg8K44ykZOcUOI2-321" value="1" style="rounded=0;whiteSpace=wrap;html=1;" vertex="1" parent="1">
          <mxGeometry x="2390" y="320" width="30" height="80" as="geometry" />
        </mxCell>
        <mxCell id="fFUsiUg8K44ykZOcUOI2-322" value="" style="edgeStyle=orthogonalEdgeStyle;rounded=0;orthogonalLoop=1;jettySize=auto;html=1;" edge="1" parent="1" source="fFUsiUg8K44ykZOcUOI2-323" target="fFUsiUg8K44ykZOcUOI2-325">
          <mxGeometry relative="1" as="geometry" />
        </mxCell>
        <mxCell id="fFUsiUg8K44ykZOcUOI2-323" value="2" style="rounded=0;whiteSpace=wrap;html=1;" vertex="1" parent="1">
          <mxGeometry x="2430" y="320" width="30" height="80" as="geometry" />
        </mxCell>
        <mxCell id="fFUsiUg8K44ykZOcUOI2-324" value="" style="edgeStyle=orthogonalEdgeStyle;rounded=0;orthogonalLoop=1;jettySize=auto;html=1;" edge="1" parent="1" source="fFUsiUg8K44ykZOcUOI2-325" target="fFUsiUg8K44ykZOcUOI2-326">
          <mxGeometry relative="1" as="geometry" />
        </mxCell>
        <mxCell id="fFUsiUg8K44ykZOcUOI2-325" value="3" style="rounded=0;whiteSpace=wrap;html=1;" vertex="1" parent="1">
          <mxGeometry x="2470" y="320" width="30" height="80" as="geometry" />
        </mxCell>
        <mxCell id="fFUsiUg8K44ykZOcUOI2-326" value="4" style="rounded=0;whiteSpace=wrap;html=1;" vertex="1" parent="1">
          <mxGeometry x="2510" y="320" width="30" height="80" as="geometry" />
        </mxCell>
        <mxCell id="fFUsiUg8K44ykZOcUOI2-353" value="" style="shape=image;imageAspect=0;aspect=fixed;verticalLabelPosition=bottom;verticalAlign=top;image=https://i.imgur.com/oUZB5g9.png;clipPath=inset(24.69% 0% 31.48% 0%);resizeHeight=0;" vertex="1" parent="1">
          <mxGeometry x="399" y="402" width="478" height="113.13" as="geometry" />
        </mxCell>
        <mxCell id="fFUsiUg8K44ykZOcUOI2-355" value="" style="shape=image;imageAspect=0;aspect=fixed;verticalLabelPosition=bottom;verticalAlign=top;image=https://i.imgur.com/oUZB5g9.png;" vertex="1" parent="1">
          <mxGeometry x="-593" y="79.57" width="815" height="440.43" as="geometry" />
        </mxCell>
        <mxCell id="fFUsiUg8K44ykZOcUOI2-356" value="" style="shape=image;imageAspect=0;aspect=fixed;verticalLabelPosition=bottom;verticalAlign=top;image=https://i.imgur.com/oUZB5g9.png;clipPath=inset(24.69% 0% 31.48% 0%);" vertex="1" parent="1">
          <mxGeometry x="887" y="402" width="783" height="185.32" as="geometry" />
        </mxCell>
        <mxCell id="fFUsiUg8K44ykZOcUOI2-357" value="" style="shape=image;imageAspect=0;aspect=fixed;verticalLabelPosition=bottom;verticalAlign=top;image=https://i.imgur.com/oUZB5g9.png;clipPath=inset(24.69% 0% 31.48% 0%);" vertex="1" parent="1">
          <mxGeometry x="1720" y="402" width="1010" height="239.04" as="geometry" />
        </mxCell>
        <mxCell id="fFUsiUg8K44ykZOcUOI2-359" value="" style="shape=image;imageAspect=0;aspect=fixed;verticalLabelPosition=bottom;verticalAlign=top;image=https://i.imgur.com/oUZB5g9.png;clipPath=inset(24.69% 0% 31.48% 0%);resizeWidth=1;resizeHeight=0;resizable=1;editable=0;" vertex="1" parent="1">
          <mxGeometry x="392" y="-387" width="1594" height="377.26" as="geometry" />
        </mxCell>
      </root>
    </mxGraphModel>
  </diagram>
</mxfile>
